<svg width="1280" height="730" viewBox="0 0 1360 732" fill="none" xmlns="http://www.w3.org/2000/svg">
<circle cx="-20.5" cy="98.5" r="98.5" fill="#FFCB20"/>
<circle cx="1215" cy="602" r="35" fill="#E0F2FE"/>
<circle cx="1261.5" cy="38.5" r="11.5" fill="#E0F2FE"/>
<path d="M1273.91 544.068C1239.62 574.923 1197.54 595.815 1152.23 604.485C1106.93 613.154 1060.11 609.271 1016.85 593.255C973.587 577.239 935.529 549.699 906.788 513.616C878.048 477.532 859.721 434.277 853.788 388.529L993.192 370.452C995.828 390.781 1003.97 410.003 1016.74 426.038C1029.52 442.073 1046.43 454.311 1065.65 461.428C1084.88 468.546 1105.68 470.272 1125.82 466.419C1145.95 462.566 1164.65 453.282 1179.89 439.57L1273.91 544.068Z" fill="#7DD3FC"/>
<circle cx="1323" cy="87" r="37" fill="#FFCB20"/>
</svg>